# xmcd
# 
# Track frame offsets:
#     182
#     17877
#     38740
#     67302
#     89260
#     103985
#     121330
#     141067
#     154982
#     167732
#     188722
#     207537
#     225032
#     243315
#     261382
#     280007
#     293635
#     306942
#     324790
# 
# Disc length: 4558
# 
# Revision: 4
# Processed by: cddbd v1.5.2PL0 Copyright (c) Steve Scherf et al.
# Submitted via: fre:ac v1.0.31
# 
DISCID=0f11cc13
DTITLE=Huh - Huh, Volume 3, Blues Issue Special
DYEAR=0
DGENRE=Blues
TTITLE0=Howlin' Wolf - The Red Rooster
TTITLE1=The Hoax - Scaramouche
TTITLE2=The Robert Cray Band - Enough For Me
TTITLE3=William Clarke - The Complainer's Boogie Woogie
TTITLE4=Ann Peebles - One Bad Turn
TTITLE5=Dave Thompson - You Took My Baby
TTITLE6=Little Charlie And The Nightcats - Homicide
TTITLE7=Jimi Hendrix - Hear My Train A Comin'
TTITLE8=Muddy Waters - I Just Want To Make Love To You
TTITLE9=Colin James - Saviour
TTITLE10=Otis Clay - Two Wrongs (Don't Make A Right)
TTITLE11=Etta James - Lover Man (Oh Where Can He Be)
TTITLE12=Otis Spann - T'aint Nobody's Bizness If I Do
TTITLE13=Dave Hole - Blues Will Call Your Name
TTITLE14=Tino - Body And Fender Man
TTITLE15=Willie Dixon - Walking The Blues
TTITLE16=Jay Owens - I Heard You Love The Blues
TTITLE17=Sherman Robertson - I'm Your Man
TTITLE18=Michael Hill's Blues Mob - Soul Emergency
EXTD=
EXTT0=Howlin' Wolf
EXTT1=The Hoax
EXTT2=The Robert Cray Band
EXTT3=William Clarke
EXTT4=Ann Peebles
EXTT5=Dave Thompson
EXTT6=Little Charlie And The Nightcats
EXTT7=Jimi Hendrix
EXTT8=Muddy Waters
EXTT9=Colin James
EXTT10=Otis Clay
EXTT11=Etta James
EXTT12=Otis Spann
EXTT13=Dave Hole
EXTT14=Tino
EXTT15=Willie Dixon
EXTT16=Jay Owens
EXTT17=Sherman Robertson
EXTT18=Michael Hill's Blues Mob
PLAYORDER=
